<?xml version="1.0" standalone="no"?>
<svg xmlns="http://www.w3.org/2000/svg" viewBox="0 0 161.5 29" width="161.5" height="29"><path fill="#ebebeb" fill-rule="nonzero" d="M8.83 17.95Q6.34 17.95 4.31 16.84Q2.28 15.72 1.14 13.78Q0 11.83 0 9.41L0 9.41Q0 6.98 1.14 5.04Q2.28 3.10 4.31 1.98Q6.34 0.86 8.83 0.86L8.83 0.86Q11.33 0.86 13.33 1.97Q15.34 3.07 16.49 5.03Q17.64 6.98 17.64 9.41L17.64 9.41Q17.64 11.83 16.49 13.79Q15.34 15.74 13.33 16.85Q11.33 17.95 8.83 17.95L8.83 17.95ZM8.83 16.37Q10.82 16.37 12.43 15.47Q14.04 14.57 14.95 12.97Q15.86 11.38 15.86 9.41L15.86 9.41Q15.86 7.44 14.95 5.84Q14.04 4.25 12.43 3.35Q10.82 2.45 8.83 2.45L8.83 2.45Q6.84 2.45 5.22 3.35Q3.60 4.25 2.68 5.84Q1.75 7.44 1.75 9.41L1.75 9.41Q1.75 11.38 2.68 12.97Q3.60 14.57 5.22 15.47Q6.84 16.37 8.83 16.37L8.83 16.37ZM37.01 5.09Q39.38 5.09 40.74 6.46Q42.10 7.82 42.10 10.49L42.10 10.49L42.10 17.81L40.39 17.81L40.39 10.66Q40.39 8.69 39.44 7.66Q38.50 6.62 36.77 6.62L36.77 6.62Q34.80 6.62 33.67 7.84Q32.54 9.05 32.54 11.18L32.54 11.18L32.54 17.81L30.84 17.81L30.84 10.66Q30.84 8.69 29.89 7.66Q28.94 6.62 27.19 6.62L27.19 6.62Q25.25 6.62 24.11 7.84Q22.97 9.05 22.97 11.18L22.97 11.18L22.97 17.81L21.26 17.81L21.26 5.18L22.90 5.18L22.90 7.49Q23.57 6.34 24.77 5.71Q25.97 5.09 27.53 5.09L27.53 5.09Q29.11 5.09 30.28 5.76Q31.44 6.43 32.02 7.75L32.02 7.75Q32.71 6.50 34.02 5.80Q35.33 5.09 37.01 5.09L37.01 5.09ZM56.59 5.18L58.30 5.18L58.30 17.81L56.66 17.81L56.66 15.31Q55.90 16.58 54.64 17.26Q53.38 17.93 51.79 17.93L51.79 17.93Q50.02 17.93 48.58 17.11Q47.14 16.30 46.32 14.83Q45.50 13.37 45.50 11.50L45.50 11.50Q45.50 9.62 46.32 8.16Q47.14 6.70 48.58 5.89Q50.02 5.09 51.79 5.09L51.79 5.09Q53.33 5.09 54.56 5.72Q55.80 6.36 56.59 7.58L56.59 7.58L56.59 5.18ZM51.94 16.42Q53.26 16.42 54.32 15.80Q55.39 15.19 56.00 14.06Q56.62 12.94 56.62 11.50L56.62 11.50Q56.62 10.06 56.00 8.93Q55.39 7.80 54.32 7.19Q53.26 6.58 51.94 6.58L51.94 6.58Q50.59 6.58 49.52 7.19Q48.46 7.80 47.84 8.93Q47.23 10.06 47.23 11.50L47.23 11.50Q47.23 12.94 47.84 14.06Q48.46 15.19 49.52 15.80Q50.59 16.42 51.94 16.42L51.94 16.42ZM64.68 7.66Q65.28 6.38 66.47 5.74Q67.66 5.09 69.41 5.09L69.41 5.09L69.41 6.74L69.00 6.72Q67.01 6.72 65.88 7.94Q64.75 9.17 64.75 11.38L64.75 11.38L64.75 17.81L63.05 17.81L63.05 5.18L64.68 5.18L64.68 7.66ZM72.60 17.93Q72.07 17.93 71.70 17.54Q71.33 17.16 71.33 16.61L71.33 16.61Q71.33 16.06 71.70 15.68Q72.07 15.31 72.60 15.31L72.60 15.31Q73.13 15.31 73.51 15.68Q73.90 16.06 73.90 16.61L73.90 16.61Q73.90 17.16 73.51 17.54Q73.13 17.93 72.60 17.93L72.60 17.93ZM77.88 17.81L77.88 1.01L84.72 1.01Q87.38 1.01 89.42 2.08Q91.46 3.14 92.59 5.05Q93.72 6.96 93.72 9.41L93.72 9.41Q93.72 11.86 92.59 13.76Q91.46 15.67 89.42 16.74Q87.38 17.81 84.72 17.81L84.72 17.81L77.88 17.81ZM79.66 16.27L84.62 16.27Q86.83 16.27 88.49 15.40Q90.14 14.52 91.06 12.97Q91.97 11.42 91.97 9.41L91.97 9.41Q91.97 7.39 91.06 5.84Q90.14 4.30 88.49 3.42Q86.83 2.54 84.62 2.54L84.62 2.54L79.66 2.54L79.66 16.27ZM97.34 17.81L97.34 5.18L99.05 5.18L99.05 17.81L97.34 17.81ZM98.21 2.42Q97.68 2.42 97.32 2.06Q96.96 1.70 96.96 1.20L96.96 1.20Q96.96 0.72 97.32 0.36Q97.68 0 98.21 0L98.21 0Q98.74 0 99.10 0.35Q99.46 0.70 99.46 1.18L99.46 1.18Q99.46 1.70 99.10 2.06Q98.74 2.42 98.21 2.42L98.21 2.42ZM112.73 5.18L114.41 5.18L108.79 17.81L107.04 17.81L101.45 5.18L103.22 5.18L107.95 15.94L112.73 5.18Z" transform="translate(0, 5.525)"></path><line x1="123.408" y1="2%" x2="123.408" y2="98%" stroke="#ebebeb" stroke-linecap="round"></line><g fill="#4dff3a" color="#4dff3a" transform="translate(132.40800000000002 0) scale(0.659091)"><svg width="44.0" height="44.0" x="0.0" y="0.0" viewBox="0 0 44 44"><path fill="currentColor" fill-rule="evenodd" d="M21.973 29.756l14.787 8.535-9.168 5.28-5.605-3.224-5.563 3.225-9.182-5.281 14.73-8.535zm0-15.005L44 27.454v6.492l-3.52 2.07-18.506-10.675L3.525 36.016l-3.52-2.042v-6.52L21.973 14.75zM21.97 0l22.026 12.689v10.576L21.984 10.591 0 23.294V12.703L21.97 0z"></path></svg></g></svg>